<?xml version="1.0" encoding="UTF-8"?>
<!DOCTYPE svg PUBLIC "-//W3C//DTD SVG 1.1//EN" "http://www.w3.org/Graphics/SVG/1.1/DTD/svg11.dtd">
<svg xmlns="http://www.w3.org/2000/svg" version="1.1" width="862px" height="873px" style="shape-rendering:geometricPrecision; text-rendering:geometricPrecision; image-rendering:optimizeQuality; fill-rule:evenodd; clip-rule:evenodd" xmlns:xlink="http://www.w3.org/1999/xlink">
<g><path style="opacity:0.241" fill="#2ec2c8" d="M 509.5,15.5 C 483.03,10.9723 456.363,8.30566 429.5,7.5C 401.277,7.89528 373.277,10.5619 345.5,15.5C 372.315,9.06695 399.648,6.06695 427.5,6.5C 455.376,5.85672 482.709,8.85672 509.5,15.5 Z"/></g>
<g><path style="opacity:0.996" fill="#0eafb7" d="M 509.5,15.5 C 518.016,15.903 526.35,17.403 534.5,20C 650.091,52.8371 738.591,120.67 800,223.5C 813.513,247.692 824.513,273.025 833,299.5C 834.812,305.04 835.979,310.707 836.5,316.5C 857.292,399.063 856.459,481.397 834,563.5C 823.131,599.889 807.965,634.222 788.5,666.5C 784.026,676.112 778.526,685.112 772,693.5C 763.427,703.65 755.093,713.984 747,724.5C 744.584,727.423 741.75,729.757 738.5,731.5C 728.425,740.908 718.758,750.575 709.5,760.5C 702.015,768.987 693.349,775.987 683.5,781.5C 677.299,784.765 671.632,788.765 666.5,793.5C 664.025,796.241 661.025,798.241 657.5,799.5C 651.995,801.749 646.995,804.749 642.5,808.5C 641.341,810.25 639.674,811.25 637.5,811.5C 629.002,815.582 620.668,819.915 612.5,824.5C 611.486,825.674 610.153,826.34 608.5,826.5C 597.316,830.93 586.316,835.597 575.5,840.5C 547.104,850.016 518.104,857.182 488.5,862C 468.567,865.474 448.567,866.141 428.5,864C 430.382,863.802 432.048,863.302 433.5,862.5C 443.487,861.653 453.487,860.986 463.5,860.5C 471.033,859.58 478.366,858.246 485.5,856.5C 501.045,854.424 516.378,851.258 531.5,847C 516.312,850.031 500.979,852.531 485.5,854.5C 475.696,855.548 466.029,856.548 456.5,857.5C 448.5,857.833 440.5,858.167 432.5,858.5C 421.151,858.407 409.818,857.907 398.5,857C 414.672,856.831 430.672,856.331 446.5,855.5C 456.62,855.21 466.62,854.21 476.5,852.5C 498.101,849.913 519.435,845.913 540.5,840.5C 633.31,812.16 708.144,758.827 765,680.5C 768.252,675.977 770.918,671.31 773,666.5C 769.969,671.239 766.469,675.572 762.5,679.5C 761.893,679.376 761.56,679.043 761.5,678.5C 761.167,677.167 760.833,677.167 760.5,678.5C 759.11,679.899 758.11,681.566 757.5,683.5C 756.833,683.5 756.5,683.833 756.5,684.5C 755.662,684.842 755.328,685.508 755.5,686.5C 752.864,689.31 750.364,692.31 748,695.5C 747.184,696.823 746.017,697.489 744.5,697.5C 731.464,713.042 717.464,727.875 702.5,742C 688.312,754.572 673.646,766.405 658.5,777.5C 650.156,782.003 642.156,787.003 634.5,792.5C 634.158,793.338 633.492,793.672 632.5,793.5C 617.832,801.501 602.832,809.001 587.5,816C 586.5,816.667 585.5,816.667 584.5,816C 591.883,812.646 598.883,808.813 605.5,804.5C 612.63,801.225 618.63,797.225 623.5,792.5C 620.596,794.12 617.596,795.453 614.5,796.5C 650.585,775.278 683.419,749.611 713,719.5C 718.714,712.625 724.214,705.625 729.5,698.5C 734.426,692.838 738.76,686.671 742.5,680C 733.72,687.771 725.053,696.105 716.5,705C 710.293,710.875 703.793,716.375 697,721.5C 696.601,721.272 696.435,720.938 696.5,720.5C 718.835,697.51 738.502,672.51 755.5,645.5C 757.56,642.76 759.226,639.76 760.5,636.5C 763.927,631.984 766.593,626.984 768.5,621.5C 769.338,621.158 769.672,620.492 769.5,619.5C 774.535,612.097 778.535,604.097 781.5,595.5C 783.625,592.912 784.958,589.912 785.5,586.5C 807.788,530.45 818.121,472.117 816.5,411.5C 815.413,398.473 814.08,385.473 812.5,372.5C 811.688,365.277 810.355,358.277 808.5,351.5C 803.765,324.211 796.098,297.878 785.5,272.5C 784.542,272.047 783.708,271.381 783,270.5C 775.333,255.167 767.667,239.833 760,224.5C 745.108,202.274 729.441,180.608 713,159.5C 700.896,149.399 689.396,138.565 678.5,127C 659.043,111.437 638.71,97.1036 617.5,84C 505.518,22.0206 390.185,15.0206 271.5,63C 220.781,85.3993 176.448,116.733 138.5,157C 135.898,157.883 133.731,159.383 132,161.5C 122.333,173.833 112.667,186.167 103,198.5C 86.8781,223.068 72.5447,248.735 60,275.5C 55.3966,285.477 51.8966,295.81 49.5,306.5C 48.5041,306.414 47.6708,306.748 47,307.5C 33.4843,350.108 26.4843,393.775 26,438.5C 24.3317,382.839 33.4983,329.006 53.5,277C 53.0556,275.238 52.5556,275.405 52,277.5C 31.07,330.482 19.7367,385.482 18,442.5C 17.6667,441.833 17.3333,441.167 17,440.5C 15.3051,385.17 24.4718,331.67 44.5,280C 44.3333,279.5 44.1667,279 44,278.5C 39.3896,289.388 35.0562,300.388 31,311.5C 30.6667,310.167 30.3333,308.833 30,307.5C 29.5291,309.246 28.8624,310.913 28,312.5C 27.8333,312 27.6667,311.5 27.5,311C 32.4125,296.76 37.4125,282.594 42.5,268.5C 47.8875,252.836 54.7208,237.836 63,223.5C 72.3365,206.819 82.6698,190.819 94,175.5C 95.8394,173.799 97.6727,172.132 99.5,170.5C 121.797,142.536 146.797,117.202 174.5,94.5C 175.96,92.5372 177.627,90.7038 179.5,89C 189.85,82.4924 199.85,75.4924 209.5,68C 227.58,57.2925 246.247,47.6258 265.5,39C 283.684,32.272 302.017,25.9387 320.5,20C 328.71,17.6962 337.043,16.1962 345.5,15.5C 373.277,10.5619 401.277,7.89528 429.5,7.5C 456.363,8.30566 483.03,10.9723 509.5,15.5 Z M 426.5,197.5 C 453.472,198.319 471.639,211.319 481,236.5C 482.945,246.17 482.945,255.837 481,265.5C 480.527,267.779 479.527,269.779 478,271.5C 478.371,264.937 476.204,259.437 471.5,255C 464.075,251.728 456.409,249.228 448.5,247.5C 449.367,244.092 450.533,240.758 452,237.5C 456.071,210.568 444.904,199.734 418.5,205C 411.618,207.907 407.452,213.074 406,220.5C 405.333,225.833 405.333,231.167 406,236.5C 407.071,239.932 408.071,243.265 409,246.5C 401.45,249.129 393.95,251.962 386.5,255C 382.131,259.949 379.964,265.782 380,272.5C 368.959,237.761 380.126,213.594 413.5,200C 417.988,199.24 422.322,198.406 426.5,197.5 Z M 428.5,210.5 C 432.442,211.314 436.109,212.814 439.5,215C 441.377,217.231 442.21,219.731 442,222.5C 436.38,221.86 432.047,219.193 429,214.5C 428.51,213.207 428.343,211.873 428.5,210.5 Z M 424.5,223.5 C 430.117,227.39 436.283,230.057 443,231.5C 443.706,233.971 443.373,236.305 442,238.5C 432.68,249.365 423.68,249.031 415,237.5C 413.909,232.902 415.743,230.069 420.5,229C 421.965,227.226 423.298,225.392 424.5,223.5 Z M 421.5,255.5 C 426.021,255.524 430.688,255.357 435.5,255C 430.903,259.401 426.237,259.568 421.5,255.5 Z M 453.5,257.5 C 459.863,258.095 464.697,261.095 468,266.5C 468.928,273.94 468.594,281.274 467,288.5C 456.704,299.896 443.87,305.063 428.5,304C 432.458,301.766 435.958,298.933 439,295.5C 438.971,288.737 438.304,282.07 437,275.5C 437.689,274.643 438.522,273.977 439.5,273.5C 442.439,274.795 444.939,274.128 447,271.5C 449.435,266.962 451.602,262.296 453.5,257.5 Z M 399.5,258.5 C 401.288,258.215 402.955,258.548 404.5,259.5C 406.322,264.477 408.655,269.143 411.5,273.5C 413.167,274.833 414.833,274.833 416.5,273.5C 417.478,273.977 418.311,274.643 419,275.5C 418.493,281.857 417.826,288.19 417,294.5C 419.34,298.006 422.174,301.006 425.5,303.5C 424.833,303.833 424.167,304.167 423.5,304.5C 418.167,303.333 412.833,302.167 407.5,301C 401.551,297.44 396.051,293.274 391,288.5C 389.402,280.939 389.069,273.272 390,265.5C 392.505,262.147 395.671,259.814 399.5,258.5 Z M 424.5,268.5 C 426.693,267.203 429.027,267.203 431.5,268.5C 429.132,271.148 426.798,271.148 424.5,268.5 Z M 427.5,281.5 C 429.445,283.307 430.445,285.64 430.5,288.5C 430.658,290.319 429.991,291.652 428.5,292.5C 427.054,291.829 426.388,290.662 426.5,289C 427.159,286.538 427.493,284.038 427.5,281.5 Z M 374.5,318.5 C 375.497,318.47 376.164,318.97 376.5,320C 370.427,331.479 364.094,342.812 357.5,354C 356.833,354.667 356.167,354.667 355.5,354C 351.5,349.333 347.5,344.667 343.5,340C 344.833,339.333 346.167,339.333 347.5,340C 349.598,342.854 351.931,345.521 354.5,348C 355.5,348.667 356.5,348.667 357.5,348C 362.799,337.894 368.466,328.061 374.5,318.5 Z M 378.5,341.5 C 378.5,341.167 378.5,340.833 378.5,340.5C 400.657,339.167 423.157,338.5 446,338.5C 468.5,338.833 491,339.167 513.5,339.5C 513.291,340.086 512.957,340.586 512.5,341C 467.835,341.5 423.168,341.667 378.5,341.5 Z M 374.5,363.5 C 375.497,363.47 376.164,363.97 376.5,365C 370.817,376.198 364.983,387.365 359,398.5C 357.951,399.517 356.784,399.684 355.5,399C 351.132,394.967 347.132,390.634 343.5,386C 344.275,384.77 345.275,384.437 346.5,385C 349.694,388.547 353.027,391.547 356.5,394C 362.89,384.053 368.89,373.886 374.5,363.5 Z M 378.5,384.5 C 422.762,383.339 467.096,383.173 511.5,384C 514.167,385 514.167,386 511.5,387C 467.168,387.5 422.835,387.667 378.5,387.5C 378.5,386.5 378.5,385.5 378.5,384.5 Z M 378.5,429.5 C 423.5,429.5 468.5,429.5 513.5,429.5C 513.5,430.5 513.5,431.5 513.5,432.5C 468.862,433.651 424.196,433.818 379.5,433C 378.663,431.989 378.33,430.822 378.5,429.5 Z M 836.5,496.5 C 835.097,499.909 834.43,503.575 834.5,507.5C 827.932,534.42 820.099,561.087 811,587.5C 808.648,593.538 805.815,599.204 802.5,604.5C 809.426,581.979 816.926,559.646 825,537.5C 830.403,516.747 834.403,495.747 837,474.5C 837.167,475.833 837.333,477.167 837.5,478.5C 836.692,484.474 836.359,490.474 836.5,496.5 Z M 788.5,633.5 C 787.434,635.852 786.267,638.186 785,640.5C 784.735,637.466 785.902,635.132 788.5,633.5 Z M 780.5,648.5 C 780.573,650.027 779.906,651.027 778.5,651.5C 778.427,649.973 779.094,648.973 780.5,648.5 Z M 760.5,678.5 C 760.727,680.933 759.727,682.599 757.5,683.5C 758.11,681.566 759.11,679.899 760.5,678.5 Z"/></g>
<g><path style="opacity:1" fill="#b3dee0" d="M 485.5,17.5 C 492.107,17.0382 498.773,17.8716 505.5,20C 498.761,19.9334 492.095,19.1001 485.5,17.5 Z"/></g>
<g><path style="opacity:1" fill="#d8eaea" d="M 570.5,39.5 C 549.514,32.2282 528.181,26.0615 506.5,21C 528.774,24.067 550.108,30.2336 570.5,39.5 Z"/></g>
<g><path style="opacity:1" fill="#cae5e6" d="M 570.5,39.5 C 573.016,39.7553 575.35,40.5886 577.5,42C 574.758,42.2952 572.425,41.4619 570.5,39.5 Z"/></g>
<g><path style="opacity:1" fill="#b7e0e2" d="M 595.5,51.5 C 596.251,50.4265 597.251,50.2599 598.5,51C 603.659,53.4121 608.659,56.0788 613.5,59C 607.475,56.8288 601.475,54.3288 595.5,51.5 Z"/></g>
<g><path style="opacity:1" fill="#c0e2e4" d="M 617.5,62.5 C 619.97,62.0275 622.304,62.8608 624.5,65C 622.037,64.7796 619.704,63.9462 617.5,62.5 Z"/></g>
<g><path style="opacity:1" fill="#c7e5e6" d="M 660.5,88.5 C 656.798,86.9764 653.464,84.8097 650.5,82C 654.429,83.0669 657.762,85.2336 660.5,88.5 Z"/></g>
<g><path style="opacity:1" fill="#d8e9ea" d="M 660.5,88.5 C 663.116,89.4798 665.449,90.9798 667.5,93C 664.614,92.5462 662.281,91.0462 660.5,88.5 Z"/></g>
<g><path style="opacity:1" fill="#cde6e8" d="M 675.5,100.5 C 675.897,99.475 676.563,99.3083 677.5,100C 686.464,107.295 695.13,114.962 703.5,123C 702.833,123.667 702.167,123.667 701.5,123C 693.257,114.917 684.59,107.417 675.5,100.5 Z"/></g>
<g><path style="opacity:0.486" fill="#35c9cf" d="M 174.5,94.5 C 146.797,117.202 121.797,142.536 99.5,170.5C 107.026,158.802 115.86,148.135 126,138.5C 139.516,122.985 154.349,108.818 170.5,96C 171.745,95.2086 173.078,94.7086 174.5,94.5 Z"/></g>
<g><path style="opacity:1" fill="#abdcde" d="M 709.5,130.5 C 709.897,129.475 710.563,129.308 711.5,130C 714.206,132.371 716.539,135.037 718.5,138C 717.833,138.667 717.167,138.667 716.5,138C 714.044,135.563 711.71,133.063 709.5,130.5 Z"/></g>
<g><path style="opacity:0.996" fill="#02adb5" d="M 533.5,171.5 C 536.328,172.854 537.828,175.187 538,178.5C 538.667,272.5 538.667,366.5 538,460.5C 536.271,466.789 532.105,469.789 525.5,469.5C 524.85,469.196 524.183,468.863 523.5,468.5C 469.039,469.163 414.706,469.829 360.5,470.5C 349.517,469.815 338.517,469.315 327.5,469C 326.584,468.722 325.918,468.222 325.5,467.5C 324.343,465.862 323.176,464.196 322,462.5C 321.005,366.086 321.338,269.752 323,173.5C 323.903,172.299 325.069,171.465 326.5,171C 395.541,170.173 464.541,170.34 533.5,171.5 Z M 426.5,197.5 C 422.322,198.406 417.988,199.24 413.5,200C 380.126,213.594 368.959,237.761 380,272.5C 379.964,265.782 382.131,259.949 386.5,255C 393.95,251.962 401.45,249.129 409,246.5C 408.071,243.265 407.071,239.932 406,236.5C 405.333,231.167 405.333,225.833 406,220.5C 407.452,213.074 411.618,207.907 418.5,205C 444.904,199.734 456.071,210.568 452,237.5C 450.533,240.758 449.367,244.092 448.5,247.5C 456.409,249.228 464.075,251.728 471.5,255C 476.204,259.437 478.371,264.937 478,271.5C 479.527,269.779 480.527,267.779 481,265.5C 482.945,255.837 482.945,246.17 481,236.5C 471.639,211.319 453.472,198.319 426.5,197.5 Z M 428.5,210.5 C 428.343,211.873 428.51,213.207 429,214.5C 432.047,219.193 436.38,221.86 442,222.5C 442.21,219.731 441.377,217.231 439.5,215C 436.109,212.814 432.442,211.314 428.5,210.5 Z M 424.5,223.5 C 423.298,225.392 421.965,227.226 420.5,229C 415.743,230.069 413.909,232.902 415,237.5C 423.68,249.031 432.68,249.365 442,238.5C 443.373,236.305 443.706,233.971 443,231.5C 436.283,230.057 430.117,227.39 424.5,223.5 Z M 421.5,255.5 C 426.237,259.568 430.903,259.401 435.5,255C 430.688,255.357 426.021,255.524 421.5,255.5 Z M 453.5,257.5 C 451.602,262.296 449.435,266.962 447,271.5C 444.939,274.128 442.439,274.795 439.5,273.5C 438.522,273.977 437.689,274.643 437,275.5C 438.304,282.07 438.971,288.737 439,295.5C 435.958,298.933 432.458,301.766 428.5,304C 443.87,305.063 456.704,299.896 467,288.5C 468.594,281.274 468.928,273.94 468,266.5C 464.697,261.095 459.863,258.095 453.5,257.5 Z M 399.5,258.5 C 395.671,259.814 392.505,262.147 390,265.5C 389.069,273.272 389.402,280.939 391,288.5C 396.051,293.274 401.551,297.44 407.5,301C 412.833,302.167 418.167,303.333 423.5,304.5C 424.167,304.167 424.833,303.833 425.5,303.5C 422.174,301.006 419.34,298.006 417,294.5C 417.826,288.19 418.493,281.857 419,275.5C 418.311,274.643 417.478,273.977 416.5,273.5C 414.833,274.833 413.167,274.833 411.5,273.5C 408.655,269.143 406.322,264.477 404.5,259.5C 402.955,258.548 401.288,258.215 399.5,258.5 Z M 424.5,268.5 C 426.798,271.148 429.132,271.148 431.5,268.5C 429.027,267.203 426.693,267.203 424.5,268.5 Z M 427.5,281.5 C 427.493,284.038 427.159,286.538 426.5,289C 426.388,290.662 427.054,291.829 428.5,292.5C 429.991,291.652 430.658,290.319 430.5,288.5C 430.445,285.64 429.445,283.307 427.5,281.5 Z M 374.5,318.5 C 368.466,328.061 362.799,337.894 357.5,348C 356.5,348.667 355.5,348.667 354.5,348C 351.931,345.521 349.598,342.854 347.5,340C 346.167,339.333 344.833,339.333 343.5,340C 347.5,344.667 351.5,349.333 355.5,354C 356.167,354.667 356.833,354.667 357.5,354C 364.094,342.812 370.427,331.479 376.5,320C 376.164,318.97 375.497,318.47 374.5,318.5 Z M 378.5,341.5 C 378.5,341.167 378.5,340.833 378.5,340.5C 400.657,339.167 423.157,338.5 446,338.5C 468.5,338.833 491,339.167 513.5,339.5C 513.291,340.086 512.957,340.586 512.5,341C 467.835,341.5 423.168,341.667 378.5,341.5 Z M 374.5,363.5 C 368.89,373.886 362.89,384.053 356.5,394C 353.027,391.547 349.694,388.547 346.5,385C 345.275,384.437 344.275,384.77 343.5,386C 347.132,390.634 351.132,394.967 355.5,399C 356.784,399.684 357.951,399.517 359,398.5C 364.983,387.365 370.817,376.198 376.5,365C 376.164,363.97 375.497,363.47 374.5,363.5 Z M 378.5,384.5 C 378.5,385.5 378.5,386.5 378.5,387.5C 422.835,387.667 467.168,387.5 511.5,387C 514.167,386 514.167,385 511.5,384C 467.096,383.173 422.762,383.339 378.5,384.5 Z M 374.5,409.5 C 376.273,410.314 376.773,411.648 376,413.5C 370.037,424.446 363.703,435.112 357,445.5C 352.23,441.058 347.73,436.225 343.5,431C 344.275,429.77 345.275,429.437 346.5,430C 349.719,433.576 353.053,436.576 356.5,439C 363.139,429.556 369.139,419.722 374.5,409.5 Z M 378.5,429.5 C 378.33,430.822 378.663,431.989 379.5,433C 424.196,433.818 468.862,433.651 513.5,432.5C 513.5,431.5 513.5,430.5 513.5,429.5C 468.5,429.5 423.5,429.5 378.5,429.5 Z"/></g>
<g><path style="opacity:0.745" fill="#9cdde0" d="M 830.5,363.5 C 820.864,307.089 800.697,254.756 770,206.5C 769.333,205.167 769.333,203.833 770,202.5C 801.898,251.686 822.065,305.352 830.5,363.5 Z"/></g>
<g><path style="opacity:0.294" fill="#23c8cf" d="M 785.5,272.5 C 796.098,297.878 803.765,324.211 808.5,351.5C 801.628,325.026 793.961,298.693 785.5,272.5 Z"/></g>
<g><path style="opacity:0.505" fill="#19b8c1" d="M 378.5,341.5 C 423.168,341.667 467.835,341.5 512.5,341C 512.957,340.586 513.291,340.086 513.5,339.5C 491,339.167 468.5,338.833 446,338.5C 423.157,338.5 400.657,339.167 378.5,340.5C 376.073,339.721 376.073,338.554 378.5,337C 423.5,336.333 468.5,336.333 513.5,337C 516.73,338.724 517.064,340.724 514.5,343C 469.167,343.667 423.833,343.667 378.5,343C 377.262,342.31 377.262,341.81 378.5,341.5 Z"/></g>
<g><path style="opacity:0.31" fill="#3fd4db" d="M 836.5,316.5 C 862.061,409.793 858.561,502.126 826,593.5C 818.274,611.285 810.274,628.952 802,646.5C 797.725,653.405 793.225,660.072 788.5,666.5C 807.965,634.222 823.131,599.889 834,563.5C 856.459,481.397 857.292,399.063 836.5,316.5 Z"/></g>
<g><path style="opacity:1" fill="#85d1d4" d="M 827.5,318.5 C 831.982,332.606 835.316,347.106 837.5,362C 837.369,364.253 836.869,366.419 836,368.5C 835.502,366.473 835.669,364.473 836.5,362.5C 836.263,359.937 835.763,359.937 835,362.5C 834.502,360.473 834.669,358.473 835.5,356.5C 835.263,353.937 834.763,353.937 834,356.5C 832.791,343.665 830.624,330.999 827.5,318.5 Z"/></g>
<g><path style="opacity:0.149" fill="#50d1d7" d="M 42.5,268.5 C 37.4125,282.594 32.4125,296.76 27.5,311C 27.6667,311.5 27.8333,312 28,312.5C 28.8624,310.913 29.5291,309.246 30,307.5C 30.3333,308.833 30.6667,310.167 31,311.5C 35.0562,300.388 39.3896,289.388 44,278.5C 44.1667,279 44.3333,279.5 44.5,280C 24.4718,331.67 15.3051,385.17 17,440.5C 17.3333,441.167 17.6667,441.833 18,442.5C 19.7367,385.482 31.07,330.482 52,277.5C 52.5556,275.405 53.0556,275.238 53.5,277C 33.4983,329.006 24.3317,382.839 26,438.5C 26.4843,393.775 33.4843,350.108 47,307.5C 47.6708,306.748 48.5041,306.414 49.5,306.5C 34.0831,355.578 26.2498,405.912 26,457.5C 24.4029,450.251 23.5695,442.918 23.5,435.5C 24.2193,420.807 24.7193,406.141 25,391.5C 23.1921,408.473 21.5254,425.473 20,442.5C 18.6439,443.38 17.1439,443.714 15.5,443.5C 13.5655,401.602 18.2322,360.435 29.5,320C 29.1667,319.5 28.8333,319 28.5,318.5C 27.1936,319.912 26.3603,321.579 26,323.5C 21.1752,343.462 16.6752,363.462 12.5,383.5C 12.43,369.325 14.2633,355.325 18,341.5C 23.3217,317.535 30.6551,294.201 40,271.5C 40.8518,270.429 41.6851,269.429 42.5,268.5 Z"/></g>
<g><path style="opacity:1" fill="#a2dcdf" d="M 830.5,363.5 C 831.639,367.301 832.472,371.301 833,375.5C 833.333,373.833 833.667,372.167 834,370.5C 835.716,380.777 836.883,391.11 837.5,401.5C 838.735,410.981 838.735,420.314 837.5,429.5C 837.293,412.433 836.126,395.433 834,378.5C 833.667,380.167 833.333,381.833 833,383.5C 831.744,376.879 830.911,370.212 830.5,363.5 Z"/></g>
<g><path style="opacity:0.237" fill="#24bec6" d="M 378.5,384.5 C 400.657,383.167 423.157,382.5 446,382.5C 468.5,382.667 491,382.833 513.5,383C 516.346,383.879 517.013,385.546 515.5,388C 469.5,388.667 423.5,388.667 377.5,388C 376.015,386.244 376.348,385.077 378.5,384.5 Z M 378.5,384.5 C 378.5,385.5 378.5,386.5 378.5,387.5C 422.835,387.667 467.168,387.5 511.5,387C 514.167,386 514.167,385 511.5,384C 467.096,383.173 422.762,383.339 378.5,384.5 Z"/></g>
<g><path style="opacity:0.929" fill="#a0dde0" d="M 841.5,400.5 C 840.732,401.263 840.232,402.263 840,403.5C 839.768,402.263 839.268,401.263 838.5,400.5C 837.696,392.481 837.696,384.481 838.5,376.5C 838.333,375.5 838.167,374.5 838,373.5C 837.667,374.833 837.333,376.167 837,377.5C 836.561,373.789 836.894,370.122 838,366.5C 840.155,377.738 841.322,389.071 841.5,400.5 Z"/></g>
<g><path style="opacity:1" fill="#bae2e3" d="M 812.5,372.5 C 814.08,385.473 815.413,398.473 816.5,411.5C 814.271,399.893 812.604,388.059 811.5,376C 811.514,374.615 811.848,373.449 812.5,372.5 Z"/></g>
<g><path style="opacity:0.427" fill="#1cb9c0" d="M 533.5,171.5 C 464.541,170.34 395.541,170.173 326.5,171C 325.069,171.465 323.903,172.299 323,173.5C 321.338,269.752 321.005,366.086 322,462.5C 323.176,464.196 324.343,465.862 325.5,467.5C 323.376,466.969 321.876,465.635 321,463.5C 319.449,371.173 319.116,278.839 320,186.5C 320.119,181.718 320.785,177.051 322,172.5C 323.8,170.683 325.966,169.516 328.5,169C 395.833,168.333 463.167,168.333 530.5,169C 531.942,169.377 532.942,170.21 533.5,171.5 Z"/></g>
<g><path style="opacity:0.285" fill="#2ac2c9" d="M 378.5,429.5 C 423.665,428.335 468.998,428.169 514.5,429C 517.167,430.667 517.167,432.333 514.5,434C 468.833,434.667 423.167,434.667 377.5,434C 375.957,431.955 376.29,430.455 378.5,429.5 Z M 378.5,429.5 C 378.33,430.822 378.663,431.989 379.5,433C 424.196,433.818 468.862,433.651 513.5,432.5C 513.5,431.5 513.5,430.5 513.5,429.5C 468.5,429.5 423.5,429.5 378.5,429.5 Z"/></g>
<g><path style="opacity:0.137" fill="#41d5dc" d="M 838.5,400.5 C 839.268,401.263 839.768,402.263 840,403.5C 840.232,402.263 840.732,401.263 841.5,400.5C 842.604,420.676 842.437,441.01 841,461.5C 840.18,473.398 838.68,485.065 836.5,496.5C 836.359,490.474 836.692,484.474 837.5,478.5C 837.333,477.167 837.167,475.833 837,474.5C 834.403,495.747 830.403,516.747 825,537.5C 816.926,559.646 809.426,581.979 802.5,604.5C 801.662,604.842 801.328,605.508 801.5,606.5C 800.391,606.443 799.391,606.11 798.5,605.5C 822.972,548.011 835.972,489.345 837.5,429.5C 838.735,420.314 838.735,410.981 837.5,401.5C 838.167,401.5 838.5,401.167 838.5,400.5 Z"/></g>
<g><path style="opacity:0.024" fill="#2ed0d0" d="M 525.5,469.5 C 470.669,470.499 415.669,470.832 360.5,470.5C 414.706,469.829 469.039,469.163 523.5,468.5C 524.183,468.863 524.85,469.196 525.5,469.5 Z"/></g>
<g><path style="opacity:0.246" fill="#38cbd2" d="M 808.5,351.5 C 810.355,358.277 811.688,365.277 812.5,372.5C 811.848,373.449 811.514,374.615 811.5,376C 812.604,388.059 814.271,399.893 816.5,411.5C 818.121,472.117 807.788,530.45 785.5,586.5C 791.951,565.974 798.118,545.307 804,524.5C 809.671,494.782 812.838,464.782 813.5,434.5C 812.408,406.781 810.741,379.114 808.5,351.5 Z"/></g>
<g><path style="opacity:0.992" fill="#04aeb6" d="M 423.5,583.5 C 428.693,576.303 434.027,569.137 439.5,562C 448.494,561.5 457.494,561.334 466.5,561.5C 466.657,562.873 466.49,564.207 466,565.5C 456.285,577.093 446.452,588.593 436.5,600C 447,612.5 457.5,625 468,637.5C 469.128,639.345 469.628,641.345 469.5,643.5C 460.161,643.666 450.827,643.5 441.5,643C 434.636,635.426 428.636,627.259 423.5,618.5C 421.562,612.553 417.562,609.219 411.5,608.5C 411.5,619.5 411.5,630.5 411.5,641.5C 404.167,641.5 396.833,641.5 389.5,641.5C 389.5,602.5 389.5,563.5 389.5,524.5C 396.833,524.5 404.167,524.5 411.5,524.5C 411.5,547.5 411.5,570.5 411.5,593.5C 413.199,593.66 414.866,593.494 416.5,593C 419.076,589.937 421.409,586.771 423.5,583.5 Z"/></g>
<g><path style="opacity:0.998" fill="#01adb5" d="M 557.5,557.5 C 560.616,573.23 556.283,586.397 544.5,597C 540.544,599.708 536.211,601.541 531.5,602.5C 520.679,601.505 509.679,601.172 498.5,601.5C 498.5,614.833 498.5,628.167 498.5,641.5C 491.167,641.5 483.833,641.5 476.5,641.5C 476.5,604.833 476.5,568.167 476.5,531.5C 495.888,531.05 515.221,531.55 534.5,533C 540.124,534.956 544.957,538.123 549,542.5C 552.232,547.493 555.065,552.493 557.5,557.5 Z M 530.5,554.5 C 530.833,555.5 531.5,556.167 532.5,556.5C 533.422,561.472 533.588,566.472 533,571.5C 531.482,577.357 527.648,580.524 521.5,581C 514.508,581.5 507.508,581.666 500.5,581.5C 500.5,571.5 500.5,561.5 500.5,551.5C 510.737,550.75 520.737,551.75 530.5,554.5 Z"/></g>
<g><path style="opacity:0.526" fill="#27c1c8" d="M 423.5,583.5 C 421.409,586.771 419.076,589.937 416.5,593C 414.866,593.494 413.199,593.66 411.5,593.5C 411.5,570.5 411.5,547.5 411.5,524.5C 404.167,524.5 396.833,524.5 389.5,524.5C 389.5,563.5 389.5,602.5 389.5,641.5C 396.833,641.5 404.167,641.5 411.5,641.5C 411.5,630.5 411.5,619.5 411.5,608.5C 417.562,609.219 421.562,612.553 423.5,618.5C 420.332,615.49 417.165,612.49 414,609.5C 413.812,620.546 413.312,631.546 412.5,642.5C 404.608,643.814 396.775,643.814 389,642.5C 388.5,602.835 388.333,563.168 388.5,523.5C 396.752,523.184 404.919,523.518 413,524.5C 413.551,536.839 413.384,549.173 412.5,561.5C 412.782,571.527 413.449,581.527 414.5,591.5C 417.52,588.811 420.52,586.144 423.5,583.5 Z"/></g>
<g><path style="opacity:0.772" fill="#26c0c7" d="M 557.5,557.5 C 555.065,552.493 552.232,547.493 549,542.5C 544.957,538.123 540.124,534.956 534.5,533C 515.221,531.55 495.888,531.05 476.5,531.5C 476.5,568.167 476.5,604.833 476.5,641.5C 483.833,641.5 491.167,641.5 498.5,641.5C 498.5,628.167 498.5,614.833 498.5,601.5C 509.679,601.172 520.679,601.505 531.5,602.5C 521.128,602.24 510.794,602.573 500.5,603.5C 500.667,616.504 500.5,629.504 500,642.5C 491.667,643.833 483.333,643.833 475,642.5C 474.171,604.929 474.337,567.429 475.5,530C 493.5,529.333 511.5,529.333 529.5,530C 544.673,533.341 554.007,542.508 557.5,557.5 Z"/></g>
<g><path style="opacity:1" fill="#bbe1e2" d="M 844.5,500.5 C 843.02,523.439 837.853,545.773 829,567.5C 832.835,553.643 836.501,539.643 840,525.5C 841.825,517.212 843.325,508.879 844.5,500.5 Z"/></g>
<g><path style="opacity:0.584" fill="#35c9d1" d="M 157.5,529.5 C 183.5,529.5 209.5,529.5 235.5,529.5C 235.5,537.167 235.5,544.833 235.5,552.5C 226.833,552.5 218.167,552.5 209.5,552.5C 209.667,582.502 209.5,612.502 209,642.5C 200.919,643.482 192.752,643.816 184.5,643.5C 184.5,613.167 184.5,582.833 184.5,552.5C 175.827,552.666 167.16,552.5 158.5,552C 157.519,544.587 157.186,537.087 157.5,529.5 Z"/></g>
<g><path style="opacity:0.997" fill="#00adb5" d="M 159.5,530.5 C 184.5,530.5 209.5,530.5 234.5,530.5C 234.5,537.167 234.5,543.833 234.5,550.5C 225.833,550.5 217.167,550.5 208.5,550.5C 208.5,580.833 208.5,611.167 208.5,641.5C 200.833,641.5 193.167,641.5 185.5,641.5C 185.5,611.167 185.5,580.833 185.5,550.5C 176.833,550.5 168.167,550.5 159.5,550.5C 159.5,543.833 159.5,537.167 159.5,530.5 Z"/></g>
<g><path style="opacity:0.405" fill="#2cc4cd" d="M 530.5,554.5 C 520.737,551.75 510.737,550.75 500.5,551.5C 500.5,561.5 500.5,571.5 500.5,581.5C 507.508,581.666 514.508,581.5 521.5,581C 527.648,580.524 531.482,577.357 533,571.5C 533.588,566.472 533.422,561.472 532.5,556.5C 536.917,564.353 536.251,571.853 530.5,579C 528.725,580.439 526.725,581.439 524.5,582C 515.84,582.5 507.173,582.666 498.5,582.5C 498.5,571.5 498.5,560.5 498.5,549.5C 506.507,549.334 514.507,549.5 522.5,550C 525.684,550.754 528.351,552.254 530.5,554.5 Z"/></g>
<g><path style="opacity:0.325" fill="#2ec4cb" d="M 282.5,637.5 C 283.458,636.038 284.624,634.705 286,633.5C 287.079,636.063 287.579,638.729 287.5,641.5C 294.5,641.5 301.5,641.5 308.5,641.5C 306.816,623.233 305.982,604.9 306,586.5C 305.439,574.271 299.273,566.437 287.5,563C 279.013,561.333 270.513,561.167 262,562.5C 260.97,562.164 260.47,561.497 260.5,560.5C 271.371,558.795 282.038,559.628 292.5,563C 299.661,565.808 304.161,570.974 306,578.5C 307.087,599.858 308.087,621.192 309,642.5C 301.914,643.646 294.747,643.812 287.5,643C 286.139,641.416 285.472,639.582 285.5,637.5C 284.5,637.5 283.5,637.5 282.5,637.5 Z"/></g>
<g><path style="opacity:0.995" fill="#04aeb6" d="M 260.5,560.5 C 260.47,561.497 260.97,562.164 262,562.5C 270.513,561.167 279.013,561.333 287.5,563C 299.273,566.437 305.439,574.271 306,586.5C 305.982,604.9 306.816,623.233 308.5,641.5C 301.5,641.5 294.5,641.5 287.5,641.5C 287.579,638.729 287.079,636.063 286,633.5C 284.624,634.705 283.458,636.038 282.5,637.5C 270.533,644.164 258.2,644.997 245.5,640C 236.165,631.486 233.999,621.32 239,609.5C 241.372,607.297 243.539,604.963 245.5,602.5C 248.463,600.214 251.796,598.381 255.5,597C 263.435,594.746 271.435,592.746 279.5,591C 284.769,587.181 284.769,583.181 279.5,579C 274.023,576.912 268.689,577.245 263.5,580C 260.77,583.32 257.937,586.487 255,589.5C 248.654,588.031 242.321,586.698 236,585.5C 236.185,580.78 237.685,576.447 240.5,572.5C 245.944,566.445 252.611,562.445 260.5,560.5 Z M 284.5,608.5 C 284.165,619.334 278.665,625.668 268,627.5C 264.67,627.133 261.836,625.8 259.5,623.5C 257.449,618.94 258.782,615.774 263.5,614C 269.548,612.261 275.548,610.428 281.5,608.5C 282.652,607.375 283.652,607.375 284.5,608.5 Z"/></g>
<g><path style="opacity:0.994" fill="#09b0b7" d="M 323.5,618.5 C 326.313,618.452 328.979,617.785 331.5,616.5C 337.366,627.956 346.2,630.956 358,625.5C 360.386,621.206 359.886,617.373 356.5,614C 348.476,610.411 340.142,607.911 331.5,606.5C 317.159,601.34 311.992,591.34 316,576.5C 322.553,564.797 332.719,559.131 346.5,559.5C 357.685,558.996 367.185,562.663 375,570.5C 377.309,573.452 378.809,576.786 379.5,580.5C 379.471,582.029 378.804,583.196 377.5,584C 371.909,585.587 366.242,586.254 360.5,586C 356.046,577.607 349.379,575.273 340.5,579C 336.345,582.895 337.011,585.895 342.5,588C 350.213,590.178 357.88,592.512 365.5,595C 379.209,601.056 384.376,611.556 381,626.5C 378.096,635.07 372.263,640.57 363.5,643C 353.492,644.969 343.492,644.969 333.5,643C 323.075,639.242 316.075,632.242 312.5,622C 315.53,619.153 319.197,617.986 323.5,618.5 Z"/></g>
<g><path style="opacity:0.996" fill="#08afb7" d="M 683.5,636.5 C 666.82,644.894 649.82,645.561 632.5,638.5C 630.147,637.66 628.147,636.326 626.5,634.5C 610.631,617.119 608.464,598.119 620,577.5C 622.705,574.964 625.205,572.297 627.5,569.5C 630.079,566.865 633.079,564.699 636.5,563C 650.267,558.347 663.933,558.68 677.5,564C 695.788,574.079 703.288,589.579 700,610.5C 698.238,621.724 692.738,630.39 683.5,636.5 Z M 655.5,579.5 C 669.069,581.072 676.069,588.739 676.5,602.5C 675.609,615.723 668.609,623.056 655.5,624.5C 641.987,623.151 635.321,615.651 635.5,602C 636.046,588.959 642.712,581.459 655.5,579.5 Z"/></g>
<g><path style="opacity:0.26" fill="#30c6cd" d="M 614.5,582.5 C 608.736,583.013 603.07,584.18 597.5,586C 592.577,589.058 590.077,593.558 590,599.5C 589.667,613.833 589.333,628.167 589,642.5C 581.225,643.814 573.392,643.814 565.5,642.5C 565.575,616.19 565.409,589.857 565,563.5C 572.558,561.553 580.391,560.886 588.5,561.5C 588.335,564.85 588.502,568.183 589,571.5C 595.601,564.301 603.768,560.801 613.5,561C 614.48,568.079 614.813,575.245 614.5,582.5 Z"/></g>
<g><path style="opacity:0.989" fill="#00adb5" d="M 566.5,562.5 C 573.5,562.5 580.5,562.5 587.5,562.5C 587.334,566.846 587.501,571.179 588,575.5C 594.2,566.816 602.7,562.483 613.5,562.5C 613.5,568.833 613.5,575.167 613.5,581.5C 603.186,580.244 595.353,583.91 590,592.5C 588.56,608.776 588.06,625.11 588.5,641.5C 581.167,641.5 573.833,641.5 566.5,641.5C 566.5,615.167 566.5,588.833 566.5,562.5 Z"/></g>
<g><path style="opacity:0.157" fill="#54cfd5" d="M 834.5,507.5 C 827.048,562.834 807.214,615.167 775,664.5C 772.707,659.511 773.207,654.844 776.5,650.5C 775.833,650.167 775.167,649.833 774.5,649.5C 783.051,635.06 791.051,620.393 798.5,605.5C 799.391,606.11 800.391,606.443 801.5,606.5C 802.338,606.158 802.672,605.492 802.5,604.5C 805.815,599.204 808.648,593.538 811,587.5C 820.099,561.087 827.932,534.42 834.5,507.5 Z M 788.5,633.5 C 785.902,635.132 784.735,637.466 785,640.5C 786.267,638.186 787.434,635.852 788.5,633.5 Z M 780.5,648.5 C 780.573,650.027 779.906,651.027 778.5,651.5C 778.427,649.973 779.094,648.973 780.5,648.5 Z"/></g>
<g><path style="opacity:0.953" fill="#aae2e4" d="M 781.5,595.5 C 778.535,604.097 774.535,612.097 769.5,619.5C 773.008,611.151 777.008,603.151 781.5,595.5 Z"/></g>
<g><path style="opacity:0.443" fill="#37cad1" d="M 245.5,602.5 C 243.539,604.963 241.372,607.297 239,609.5C 233.999,621.32 236.165,631.486 245.5,640C 258.2,644.997 270.533,644.164 282.5,637.5C 279,641.129 274.666,643.296 269.5,644C 255.365,647.294 244.199,643.127 236,631.5C 233.626,623.24 234.293,615.24 238,607.5C 239.857,604.8 242.357,603.134 245.5,602.5 Z"/></g>
<g><path style="opacity:0.145" fill="#2fc5cd" d="M 627.5,569.5 C 625.205,572.297 622.705,574.964 620,577.5C 608.464,598.119 610.631,617.119 626.5,634.5C 622.638,633.476 619.805,631.143 618,627.5C 611.839,616.253 609.839,604.253 612,591.5C 613.145,588.568 613.978,585.568 614.5,582.5C 617.16,576.506 621.494,572.173 627.5,569.5 Z"/></g>
<g><path style="opacity:0.294" fill="#36c9cf" d="M 281.5,608.5 C 275.548,610.428 269.548,612.261 263.5,614C 258.782,615.774 257.449,618.94 259.5,623.5C 261.836,625.8 264.67,627.133 268,627.5C 278.665,625.668 284.165,619.334 284.5,608.5C 285.268,607.737 285.768,606.737 286,605.5C 286.938,622.23 279.105,629.73 262.5,628C 255.202,623.447 254.869,618.447 261.5,613C 267.644,611.089 273.81,609.256 280,607.5C 280.765,607.57 281.265,607.903 281.5,608.5 Z M 284.5,608.5 C 284.165,619.334 278.665,625.668 268,627.5C 264.67,627.133 261.836,625.8 259.5,623.5C 257.449,618.94 258.782,615.774 263.5,614C 269.548,612.261 275.548,610.428 281.5,608.5C 282.652,607.375 283.652,607.375 284.5,608.5 Z"/></g>
<g><path style="opacity:0.225" fill="#33c8ce" d="M 331.5,606.5 C 340.142,607.911 348.476,610.411 356.5,614C 359.886,617.373 360.386,621.206 358,625.5C 346.2,630.956 337.366,627.956 331.5,616.5C 328.979,617.785 326.313,618.452 323.5,618.5C 326.504,616.558 329.838,615.725 333.5,616C 338.779,626.731 346.613,629.231 357,623.5C 359.045,620.281 358.545,617.448 355.5,615C 347.299,612.435 339.299,609.602 331.5,606.5 Z"/></g>
<g><path style="opacity:1" fill="#8ad1d5" d="M 807.5,616.5 C 808.573,617.251 808.74,618.251 808,619.5C 805.162,625.176 802.329,630.842 799.5,636.5C 799.167,636.167 798.833,635.833 798.5,635.5C 801.784,629.266 804.784,622.933 807.5,616.5 Z"/></g>
<g><path style="opacity:0.925" fill="#b6e3e5" d="M 768.5,621.5 C 766.593,626.984 763.927,631.984 760.5,636.5C 760.491,634.692 760.991,633.025 762,631.5C 763.942,627.931 766.108,624.598 768.5,621.5 Z"/></g>
<g><path style="opacity:0.182" fill="#3fd3d9" d="M 683.5,636.5 C 675.273,642.556 665.94,645.222 655.5,644.5C 650.444,644.498 645.444,643.998 640.5,643C 637.316,642.246 634.649,640.746 632.5,638.5C 649.82,645.561 666.82,644.894 683.5,636.5 Z"/></g>
<g><path style="opacity:0.365" fill="#55d9df" d="M 585.5,677.5 C 588.382,685.663 590.382,685.33 591.5,676.5C 593.604,676.201 595.604,676.534 597.5,677.5C 598.035,679.661 598.868,681.661 600,683.5C 601.164,681.351 602.33,679.185 603.5,677C 604.793,676.51 606.127,676.343 607.5,676.5C 607.21,680.554 607.877,681.054 609.5,678C 611.778,677.014 614.111,676.18 616.5,675.5C 621.814,676.122 627.147,676.789 632.5,677.5C 633.366,680.531 634.866,683.197 637,685.5C 638.318,682.523 639.818,679.69 641.5,677C 643.134,676.506 644.801,676.34 646.5,676.5C 643.932,684.317 640.765,691.984 637,699.5C 635.89,701.037 634.39,701.703 632.5,701.5C 633.051,698.193 633.384,694.86 633.5,691.5C 634.586,691.62 635.253,692.287 635.5,693.5C 634.669,695.473 634.502,697.473 635,699.5C 638.546,692.871 641.713,686.038 644.5,679C 644.026,677.392 643.359,677.226 642.5,678.5C 640.941,682.619 639.107,686.619 637,690.5C 634.893,686.619 633.059,682.619 631.5,678.5C 630.635,677.417 629.635,677.251 628.5,678C 630.533,680.896 631.866,684.063 632.5,687.5C 631.088,685.02 629.422,682.687 627.5,680.5C 626.506,685.456 626.173,690.456 626.5,695.5C 613.875,699.016 607.375,694.35 607,681.5C 605.74,686.292 603.906,690.792 601.5,695C 599.633,695.711 598.133,695.211 597,693.5C 595.261,685.938 593.427,686.271 591.5,694.5C 590.277,695.614 588.944,695.781 587.5,695C 585.285,690.626 583.452,686.126 582,681.5C 581.667,685.5 581.333,689.5 581,693.5C 580.5,694 580,694.5 579.5,695C 575.35,695.33 571.016,695.33 566.5,695C 562.895,692.885 561.228,689.719 561.5,685.5C 561.697,679.467 564.864,676.134 571,675.5C 575.98,676.093 580.814,676.76 585.5,677.5 Z M 568.5,681.5 C 575.158,680.344 577.158,682.844 574.5,689C 567.254,690.274 565.254,687.774 568.5,681.5 Z M 613.5,681.5 C 615.924,681.192 618.257,681.526 620.5,682.5C 622.286,686.903 620.786,689.569 616,690.5C 611.945,688.191 611.111,685.191 613.5,681.5 Z"/></g>
<g><path style="opacity:0.995" fill="#05b2ba" d="M 585.5,677.5 C 586.356,681.57 587.523,685.57 589,689.5C 590.737,685.458 592.57,681.458 594.5,677.5C 596.597,681.594 598.43,685.927 600,690.5C 601.333,686.5 602.667,682.5 604,678.5C 604.718,677.549 605.551,677.383 606.5,678C 604.332,683.003 602.666,688.17 601.5,693.5C 600.5,693.5 599.5,693.5 598.5,693.5C 597.34,689.531 596.173,685.531 595,681.5C 593.216,685.012 591.716,688.679 590.5,692.5C 589.726,693.711 588.893,693.711 588,692.5C 586.296,687.597 584.463,682.763 582.5,678C 583.448,677.517 584.448,677.351 585.5,677.5 Z"/></g>
<g><path style="opacity:0.907" fill="#2cbcc3" d="M 567.5,677.5 C 571.192,676.971 574.358,677.971 577,680.5C 577.249,679.376 577.749,678.376 578.5,677.5C 579.833,682.833 579.833,688.167 578.5,693.5C 577.808,692.975 577.308,692.308 577,691.5C 569.565,695.569 564.731,693.569 562.5,685.5C 563.177,682.133 564.843,679.466 567.5,677.5 Z M 568.5,681.5 C 565.254,687.774 567.254,690.274 574.5,689C 577.158,682.844 575.158,680.344 568.5,681.5 Z"/></g>
<g><path style="opacity:0.225" fill="#53d6db" d="M 414.5,669.5 C 416.288,669.215 417.955,669.548 419.5,670.5C 419.833,673.167 420.167,675.833 420.5,678.5C 419.704,685.117 419.204,691.783 419,698.5C 417.809,700.915 415.809,702.248 413,702.5C 410.03,701.978 409.196,700.478 410.5,698C 411.448,697.517 412.448,697.351 413.5,697.5C 414.424,688.112 414.757,678.778 414.5,669.5 Z"/></g>
<g><path style="opacity:1" fill="#14b5bc" d="M 415.5,677.5 C 416.5,677.5 417.5,677.5 418.5,677.5C 418.666,684.175 418.5,690.842 418,697.5C 416.62,700.481 414.454,701.147 411.5,699.5C 412.689,698.571 414.022,698.238 415.5,698.5C 415.5,691.5 415.5,684.5 415.5,677.5 Z"/></g>
<g><path style="opacity:0.318" fill="#50d5db" d="M 459.5,670.5 C 461.167,670.5 462.833,670.5 464.5,670.5C 463.5,675.5 465.5,677.5 470.5,676.5C 470.938,680.908 468.938,682.575 464.5,681.5C 464.337,683.857 464.503,686.19 465,688.5C 466.667,689.167 468.333,689.833 470,690.5C 470.72,692.112 470.554,693.612 469.5,695C 460.969,696.128 457.469,692.295 459,683.5C 458.612,682.572 457.945,681.905 457,681.5C 455.5,682 454,682.5 452.5,683C 457.665,687.004 457.665,691.004 452.5,695C 447.563,696.369 443.396,695.203 440,691.5C 439.691,692.766 439.191,693.933 438.5,695C 434.5,695.667 430.5,695.667 426.5,695C 425.069,694.535 423.903,693.701 423,692.5C 421.905,687.22 421.405,681.887 421.5,676.5C 423.467,676.261 425.301,676.594 427,677.5C 427.333,681.167 427.667,684.833 428,688.5C 430.513,690.617 432.513,689.951 434,686.5C 434.498,683.183 434.665,679.85 434.5,676.5C 436.167,676.5 437.833,676.5 439.5,676.5C 439.334,680.514 439.501,684.514 440,688.5C 442.509,686.621 442.676,684.288 440.5,681.5C 444.664,674.306 449.83,673.64 456,679.5C 458.281,676.937 459.448,673.937 459.5,670.5 Z"/></g>
<g><path style="opacity:0.983" fill="#03afb7" d="M 423.5,677.5 C 425.268,681.044 426.102,685.044 426,689.5C 429,692.167 432,692.167 435,689.5C 435.173,685.459 435.673,681.459 436.5,677.5C 437.833,682.833 437.833,688.167 436.5,693.5C 435.808,692.975 435.308,692.308 435,691.5C 431.535,694.128 428.035,694.128 424.5,691.5C 423.557,686.9 423.223,682.233 423.5,677.5 Z"/></g>
<g><path style="opacity:0.994" fill="#01aeb7" d="M 461.5,672.5 C 463.256,673.552 463.923,675.219 463.5,677.5C 470.167,678.167 470.167,678.833 463.5,679.5C 463.335,683.182 463.501,686.848 464,690.5C 465.509,691.09 467.009,691.756 468.5,692.5C 466.051,693.91 463.884,693.576 462,691.5C 461.501,687.514 461.334,683.514 461.5,679.5C 456.167,678.833 456.167,678.167 461.5,677.5C 461.5,675.833 461.5,674.167 461.5,672.5 Z"/></g>
<g><path style="opacity:0.218" fill="#53d5db" d="M 359.5,681.5 C 358.792,685.785 358.292,690.118 358,694.5C 356.989,695.337 355.822,695.67 354.5,695.5C 354.5,689.167 354.5,682.833 354.5,676.5C 367.974,672.801 373.974,677.967 372.5,692C 371.567,694.818 369.567,695.984 366.5,695.5C 366.666,691.486 366.499,687.486 366,683.5C 364.246,681.75 362.079,681.083 359.5,681.5 Z"/></g>
<g><path style="opacity:0.935" fill="#02aeb6" d="M 359.5,681.5 C 358.883,681.611 358.383,681.944 358,682.5C 357.825,686.211 357.325,689.878 356.5,693.5C 355.167,688.167 355.167,682.833 356.5,677.5C 357.251,678.376 357.751,679.376 358,680.5C 361.182,676.943 364.682,676.609 368.5,679.5C 369.779,684.147 369.779,688.814 368.5,693.5C 367.673,689.541 367.173,685.541 367,681.5C 364.379,678.86 361.879,678.86 359.5,681.5 Z"/></g>
<g><path style="opacity:0.161" fill="#37cdd4" d="M 509.5,668.5 C 511.167,668.5 512.833,668.5 514.5,668.5C 514.666,677.173 514.5,685.84 514,694.5C 512.644,695.38 511.144,695.714 509.5,695.5C 508.786,686.427 508.786,677.427 509.5,668.5 Z"/></g>
<g><path style="opacity:0.879" fill="#38c3ca" d="M 340.5,675.5 C 350.661,675.862 354.495,680.862 352,690.5C 346.292,696.715 340.292,697.048 334,691.5C 330.851,683.743 333.018,678.41 340.5,675.5 Z M 339.5,681.5 C 341.924,681.192 344.257,681.526 346.5,682.5C 348.031,688.466 345.697,690.633 339.5,689C 337.034,686.421 337.034,683.921 339.5,681.5 Z"/></g>
<g><path style="opacity:0.173" fill="#54d7dd" d="M 275.5,679.5 C 282.465,673.698 288.298,674.698 293,682.5C 297.433,675.573 303.1,674.239 310,678.5C 313.054,676.634 314.554,673.967 314.5,670.5C 319.161,669.832 321.161,671.832 320.5,676.5C 322.467,676.261 324.301,676.594 326,677.5C 326.333,675.167 326.667,672.833 327,670.5C 328.333,669.167 329.667,669.167 331,670.5C 331.426,678.332 331.426,686.332 331,694.5C 329.667,695.833 328.333,695.833 327,694.5C 326.828,689.798 326.328,685.132 325.5,680.5C 323.591,681.348 321.591,681.682 319.5,681.5C 318.317,686.482 320.15,689.482 325,690.5C 325.72,692.112 325.554,693.612 324.5,695C 320.726,696.183 317.559,695.349 315,692.5C 314.667,689.167 314.333,685.833 314,682.5C 313.586,682.043 313.086,681.709 312.5,681.5C 311.389,682.611 310.055,683.278 308.5,683.5C 305.695,681.533 302.695,681.2 299.5,682.5C 298.224,684.861 298.558,687.028 300.5,689C 304.179,688.852 307.845,688.352 311.5,687.5C 311.872,690.923 310.539,693.423 307.5,695C 300.163,697.329 295.33,694.829 293,687.5C 291.884,694.654 287.717,697.154 280.5,695C 274.784,691.253 273.117,686.087 275.5,679.5 Z"/></g>
<g><path style="opacity:0.841" fill="#23bac1" d="M 280.5,677.5 C 287.571,676.583 291.237,679.583 291.5,686.5C 286.821,686.334 282.155,686.501 277.5,687C 278.748,689.914 280.914,691.747 284,692.5C 286.411,691.013 288.911,690.179 291.5,690C 286.807,694.448 281.974,694.614 277,690.5C 274.325,685.011 275.492,680.678 280.5,677.5 Z"/></g>
<g><path style="opacity:0.992" fill="#08b1b9" d="M 300.5,677.5 C 303.271,677.421 305.937,677.921 308.5,679C 309.896,683.126 309.23,683.459 306.5,680C 299.718,678.125 296.552,680.625 297,687.5C 299.053,691.292 302.219,692.458 306.5,691C 309.859,689.375 310.192,690.042 307.5,693C 298.438,695.269 294.271,691.769 295,682.5C 296.406,680.256 298.239,678.59 300.5,677.5 Z"/></g>
<g><path style="opacity:0.998" fill="#15b4bb" d="M 315.5,672.5 C 316.5,672.5 317.5,672.5 318.5,672.5C 318.5,674.167 318.5,675.833 318.5,677.5C 325.167,678.167 325.167,678.833 318.5,679.5C 318.335,683.182 318.501,686.848 319,690.5C 320.509,691.09 322.009,691.756 323.5,692.5C 321.305,693.769 319.139,693.769 317,692.5C 315.71,688.27 315.21,683.936 315.5,679.5C 311.5,678.833 311.5,678.167 315.5,677.5C 315.5,675.833 315.5,674.167 315.5,672.5 Z"/></g>
<g><path style="opacity:0.984" fill="#0fb1b9" d="M 445.5,677.5 C 449.08,676.923 452.08,677.923 454.5,680.5C 454.167,680.833 453.833,681.167 453.5,681.5C 450.383,678.91 447.383,678.91 444.5,681.5C 447.26,683.818 450.427,685.485 454,686.5C 455.809,691.541 454.143,693.875 449,693.5C 446.648,693.695 444.648,693.028 443,691.5C 442.911,688.978 443.745,688.812 445.5,691C 447.81,691.497 450.143,691.663 452.5,691.5C 452.714,689.856 452.38,688.356 451.5,687C 448.391,686.356 445.557,685.189 443,683.5C 442.034,680.66 442.867,678.66 445.5,677.5 Z"/></g>
<g><path style="opacity:0.137" fill="#40cbd2" d="M 516.5,669.5 C 518.467,669.261 520.301,669.594 522,670.5C 522.245,675.455 522.079,680.455 521.5,685.5C 522.334,689.113 523.334,689.279 524.5,686C 521.783,679.736 523.783,676.236 530.5,675.5C 533.108,675.923 535.442,676.923 537.5,678.5C 540.328,677.004 541.994,674.671 542.5,671.5C 544.045,670.548 545.712,670.215 547.5,670.5C 546.425,674.938 548.092,676.938 552.5,676.5C 553.167,680.5 551.5,682.167 547.5,681.5C 547.337,683.857 547.503,686.19 548,688.5C 552.895,689.124 554.062,691.291 551.5,695C 548.412,695.847 545.579,695.347 543,693.5C 542.5,690.5 542,687.5 541.5,684.5C 541.304,682.714 540.471,681.381 539,680.5C 537.829,681.893 536.329,682.727 534.5,683C 539.568,685.609 540.568,689.276 537.5,694C 532.034,696.548 527.2,695.714 523,691.5C 521.812,692.563 521.312,693.897 521.5,695.5C 519.833,695.5 518.167,695.5 516.5,695.5C 516.368,686.713 516.368,678.046 516.5,669.5 Z"/></g>
<g><path style="opacity:0.987" fill="#02afb7" d="M 543.5,672.5 C 545.256,673.552 545.923,675.219 545.5,677.5C 553.5,678.167 553.5,678.833 545.5,679.5C 545.335,683.182 545.501,686.848 546,690.5C 553.337,692.397 553.171,693.231 545.5,693C 544.874,692.25 544.374,691.416 544,690.5C 543.501,686.848 543.335,683.182 543.5,679.5C 539.5,678.833 539.5,678.167 543.5,677.5C 543.5,675.833 543.5,674.167 543.5,672.5 Z"/></g>
<g><path style="opacity:0.988" fill="#05b0b8" d="M 613.5,677.5 C 617.192,676.971 620.358,677.971 623,680.5C 623.249,679.376 623.749,678.376 624.5,677.5C 625.833,682.833 625.833,688.167 624.5,693.5C 623.346,691.144 622.013,690.977 620.5,693C 611.902,694.736 608.068,691.236 609,682.5C 610.025,680.313 611.525,678.646 613.5,677.5 Z M 613.5,681.5 C 611.111,685.191 611.945,688.191 616,690.5C 620.786,689.569 622.286,686.903 620.5,682.5C 618.257,681.526 615.924,681.192 613.5,681.5 Z"/></g>
<g><path style="opacity:0.247" fill="#4cd7dd" d="M 614.5,679.5 C 619.42,678.784 622.42,680.784 623.5,685.5C 622.349,691.091 619.016,692.925 613.5,691C 609.376,686.695 609.709,682.862 614.5,679.5 Z M 613.5,681.5 C 611.111,685.191 611.945,688.191 616,690.5C 620.786,689.569 622.286,686.903 620.5,682.5C 618.257,681.526 615.924,681.192 613.5,681.5 Z"/></g>
<g><path style="opacity:0.18" fill="#47d0d7" d="M 275.5,679.5 C 273.858,681.081 271.858,681.747 269.5,681.5C 269.666,685.846 269.499,690.179 269,694.5C 266.978,695.991 265.312,695.658 264,693.5C 263.501,689.514 263.334,685.514 263.5,681.5C 260.881,681.232 258.381,681.565 256,682.5C 255.667,686.5 255.333,690.5 255,694.5C 253.286,695.925 251.953,695.592 251,693.5C 250.667,691.5 250.333,689.5 250,687.5C 247.883,694.812 243.049,697.312 235.5,695C 231.808,692.45 230.142,688.95 230.5,684.5C 229.5,684.5 228.5,684.5 227.5,684.5C 227.389,685.117 227.056,685.617 226.5,686C 223.529,686.794 220.529,687.461 217.5,688C 216.565,690.381 216.232,692.881 216.5,695.5C 214.856,695.714 213.356,695.38 212,694.5C 211.5,686.173 211.334,677.84 211.5,669.5C 216.511,669.334 221.511,669.501 226.5,670C 229.351,672.191 231.351,675.024 232.5,678.5C 240.132,673.866 245.965,675.533 250,683.5C 250.236,681.236 250.736,679.069 251.5,677C 255.292,676.259 258.958,675.926 262.5,676C 263.717,674.352 264.55,672.519 265,670.5C 270.315,665.777 273.482,666.777 274.5,673.5C 267.881,674.375 267.881,675.541 274.5,677C 275.252,677.671 275.586,678.504 275.5,679.5 Z M 218.5,674.5 C 220.989,674.298 223.323,674.798 225.5,676C 227.14,678.776 226.473,680.776 223.5,682C 216.384,683.151 214.718,680.651 218.5,674.5 Z"/></g>
<g><path style="opacity:0.983" fill="#1cb8bf" d="M 237.5,677.5 C 244.283,676.866 247.616,679.866 247.5,686.5C 243.167,686.5 238.833,686.5 234.5,686.5C 234.452,689.292 235.785,691.125 238.5,692C 241.789,692.162 244.789,691.496 247.5,690C 243.47,694.066 238.97,694.566 234,691.5C 231.133,685.63 232.3,680.963 237.5,677.5 Z"/></g>
<g><path style="opacity:0.993" fill="#01aeb6" d="M 268.5,669.5 C 270.429,669.231 272.095,669.731 273.5,671C 269.215,671.117 267.215,673.283 267.5,677.5C 275.5,678.167 275.5,678.833 267.5,679.5C 266.833,698.167 266.167,698.167 265.5,679.5C 261.5,678.833 261.5,678.167 265.5,677.5C 265.018,674.169 266.018,671.503 268.5,669.5 Z"/></g>
<g><path style="opacity:0.996" fill="#24b8c0" d="M 227.5,684.5 C 223.566,685.36 219.566,685.693 215.5,685.5C 215.813,688.247 215.48,690.914 214.5,693.5C 213.503,686.197 213.169,678.863 213.5,671.5C 217.846,671.334 222.179,671.501 226.5,672C 230.091,675.9 230.425,680.067 227.5,684.5 Z M 218.5,674.5 C 214.718,680.651 216.384,683.151 223.5,682C 226.473,680.776 227.14,678.776 225.5,676C 223.323,674.798 220.989,674.298 218.5,674.5 Z"/></g>
<g><path style="opacity:0.616" fill="#47ccd2" d="M 382.5,669.5 C 384.144,669.286 385.644,669.62 387,670.5C 386.982,676.346 387.316,682.346 388,688.5C 388.267,684.613 389.1,680.779 390.5,677C 396.413,674.31 401.079,675.643 404.5,681C 403.377,682.044 402.044,682.71 400.5,683C 404.839,686.039 405.506,689.705 402.5,694C 396.955,696.649 392.121,695.815 388,691.5C 387.582,695.222 385.749,696.222 382.5,694.5C 381.169,686.137 381.169,677.803 382.5,669.5 Z"/></g>
<g><path style="opacity:0.992" fill="#07b0b9" d="M 633.5,691.5 C 633.167,690.167 632.833,688.833 632.5,687.5C 631.866,684.063 630.533,680.896 628.5,678C 629.635,677.251 630.635,677.417 631.5,678.5C 633.059,682.619 634.893,686.619 637,690.5C 639.107,686.619 640.941,682.619 642.5,678.5C 643.359,677.226 644.026,677.392 644.5,679C 641.713,686.038 638.546,692.871 635,699.5C 634.502,697.473 634.669,695.473 635.5,693.5C 635.253,692.287 634.586,691.62 633.5,691.5 Z"/></g>
<g><path style="opacity:0.255" fill="#4cd4da" d="M 486.5,675.5 C 490.466,676.162 494.466,676.495 498.5,676.5C 498.5,682.833 498.5,689.167 498.5,695.5C 493.821,695.666 489.155,695.499 484.5,695C 479.918,691.606 478.418,687.106 480,681.5C 481.436,678.558 483.603,676.558 486.5,675.5 Z M 485.5,681.5 C 492.305,680.673 494.305,683.173 491.5,689C 484.52,690.168 482.52,687.668 485.5,681.5 Z"/></g>
<g><path style="opacity:0.991" fill="#12b2ba" d="M 485.5,677.5 C 488.482,677.104 491.149,677.771 493.5,679.5C 494.524,678.147 495.857,677.48 497.5,677.5C 497.5,682.833 497.5,688.167 497.5,693.5C 495.876,693.64 494.71,692.973 494,691.5C 484.837,695.684 480.504,692.684 481,682.5C 482.025,680.313 483.525,678.646 485.5,677.5 Z M 485.5,681.5 C 482.52,687.668 484.52,690.168 491.5,689C 494.305,683.173 492.305,680.673 485.5,681.5 Z"/></g>
<g><path style="opacity:0.125" fill="#50d6dc" d="M 485.5,679.5 C 494.244,679.413 496.577,683.246 492.5,691C 489.571,691.777 486.737,691.61 484,690.5C 481.689,686.374 482.189,682.707 485.5,679.5 Z M 485.5,681.5 C 482.52,687.668 484.52,690.168 491.5,689C 494.305,683.173 492.305,680.673 485.5,681.5 Z"/></g>
<g><path style="opacity:0.999" fill="#e6eded" d="M 755.5,645.5 C 738.502,672.51 718.835,697.51 696.5,720.5C 695.448,720.649 694.448,720.483 693.5,720C 717.028,697.154 737.528,671.988 755,644.5C 755.399,644.728 755.565,645.062 755.5,645.5 Z"/></g>
<g><path style="opacity:0.804" fill="#a6e0e3" d="M 736.5,725.5 C 736.5,724.833 736.167,724.5 735.5,724.5C 753.702,704.131 770.202,682.464 785,659.5C 785.315,660.908 784.982,662.241 784,663.5C 770.219,685.776 754.386,706.442 736.5,725.5 Z"/></g>
<g><path style="opacity:0.141" fill="#52d8e0" d="M 100.5,699.5 C 107.431,707.603 114.597,715.603 122,723.5C 122.483,724.448 122.649,725.448 122.5,726.5C 116.143,719.978 109.977,713.311 104,706.5C 102.295,704.423 101.128,702.09 100.5,699.5 Z"/></g>
<g><path style="opacity:0.055" fill="#4cd5dc" d="M 744.5,697.5 C 721.637,727.195 694.971,753.028 664.5,775C 662.593,776.122 660.593,776.955 658.5,777.5C 673.646,766.405 688.312,754.572 702.5,742C 717.464,727.875 731.464,713.042 744.5,697.5 Z"/></g>
<g><path style="opacity:0.96" fill="#0db2ba" d="M 126.5,729.5 C 124.596,729.262 123.262,728.262 122.5,726.5C 122.649,725.448 122.483,724.448 122,723.5C 114.597,715.603 107.431,707.603 100.5,699.5C 86.0369,679.675 72.7036,659.009 60.5,637.5C 60.8457,636.304 61.3457,636.304 62,637.5C 89.7797,687.474 125.946,730.64 170.5,767C 169.833,767.667 169.167,767.667 168.5,767C 153.962,754.954 139.962,742.454 126.5,729.5 Z"/></g>
<g><path style="opacity:0.149" fill="#40ccd3" d="M 785.5,586.5 C 784.958,589.912 783.625,592.912 781.5,595.5C 777.008,603.151 773.008,611.151 769.5,619.5C 769.672,620.492 769.338,621.158 768.5,621.5C 766.108,624.598 763.942,627.931 762,631.5C 760.991,633.025 760.491,634.692 760.5,636.5C 759.226,639.76 757.56,642.76 755.5,645.5C 755.565,645.062 755.399,644.728 755,644.5C 737.528,671.988 717.028,697.154 693.5,720C 694.448,720.483 695.448,720.649 696.5,720.5C 696.435,720.938 696.601,721.272 697,721.5C 703.793,716.375 710.293,710.875 716.5,705C 725.053,696.105 733.72,687.771 742.5,680C 738.76,686.671 734.426,692.838 729.5,698.5C 729.703,696.956 730.37,695.622 731.5,694.5C 731.333,694.167 731.167,693.833 731,693.5C 720.799,703.37 710.299,712.87 699.5,722C 696.756,722.803 694.089,723.803 691.5,725C 681.47,735.035 670.303,743.535 658,750.5C 657.333,749.5 657.333,748.5 658,747.5C 692.234,720.936 721.234,689.603 745,653.5C 749.097,648.313 753.43,643.313 758,638.5C 764.099,624.298 770.766,610.298 778,596.5C 779.979,592.7 782.479,589.366 785.5,586.5 Z"/></g>
<g><path style="opacity:0.122" fill="#4bd8df" d="M 738.5,731.5 C 736.913,734.268 735.08,736.935 733,739.5C 725.276,746.73 717.442,753.73 709.5,760.5C 718.758,750.575 728.425,740.908 738.5,731.5 Z"/></g>
<g><path style="opacity:0.545" fill="#83dde1" d="M 735.5,724.5 C 736.167,724.5 736.5,724.833 736.5,725.5C 720.414,743.588 702.747,759.921 683.5,774.5C 683.158,773.662 682.492,773.328 681.5,773.5C 700.594,758.578 718.594,742.245 735.5,724.5 Z"/></g>
<g><path style="opacity:0.275" fill="#53dae0" d="M 729.5,698.5 C 724.214,705.625 718.714,712.625 713,719.5C 683.419,749.611 650.585,775.278 614.5,796.5C 612.058,798.226 609.391,799.726 606.5,801C 605.663,802.011 605.33,803.178 605.5,804.5C 598.883,808.813 591.883,812.646 584.5,816C 585.5,816.667 586.5,816.667 587.5,816C 602.832,809.001 617.832,801.501 632.5,793.5C 628.742,796.557 624.742,799.39 620.5,802C 604.189,810.323 587.522,817.823 570.5,824.5C 567.972,823.483 567.972,822.316 570.5,821C 575.997,818.755 580.997,815.755 585.5,812C 590.553,810.152 595.553,808.152 600.5,806C 603.147,804.375 604.814,802.041 605.5,799C 640.177,780.16 671.843,757.16 700.5,730C 710.08,720.424 718.913,710.258 727,699.5C 727.671,698.748 728.504,698.414 729.5,698.5 Z"/></g>
<g><path style="opacity:0.031" fill="#55dadf" d="M 224.5,763.5 C 231.138,766.82 237.471,770.653 243.5,775C 251.288,778.394 258.955,782.061 266.5,786C 269.477,788.119 269.144,789.286 265.5,789.5C 263.423,789.308 261.423,788.808 259.5,788C 251.152,782.825 242.485,778.158 233.5,774C 230.061,771.861 226.894,769.361 224,766.5C 223.53,765.423 223.697,764.423 224.5,763.5 Z"/></g>
<g><path style="opacity:0.718" fill="#b2e7e9" d="M 681.5,773.5 C 682.492,773.328 683.158,773.662 683.5,774.5C 673.21,782.317 662.543,789.651 651.5,796.5C 660.605,788.487 670.605,780.821 681.5,773.5 Z"/></g>
<g><path style="opacity:0.129" fill="#6ee2eb" d="M 683.5,781.5 C 678.948,787.048 673.281,791.048 666.5,793.5C 671.632,788.765 677.299,784.765 683.5,781.5 Z"/></g>
<g><path style="opacity:0.047" fill="#50dde2" d="M 658.5,777.5 C 655.94,780.458 652.94,782.958 649.5,785C 644.807,788.212 639.807,790.712 634.5,792.5C 642.156,787.003 650.156,782.003 658.5,777.5 Z"/></g>
<g><path style="opacity:1" fill="#d5eaeb" d="M 605.5,804.5 C 605.33,803.178 605.663,802.011 606.5,801C 609.391,799.726 612.058,798.226 614.5,796.5C 617.596,795.453 620.596,794.12 623.5,792.5C 618.63,797.225 612.63,801.225 605.5,804.5 Z"/></g>
<g><path style="opacity:0.063" fill="#59dbe1" d="M 351.5,848.5 C 351.5,849.833 351.5,851.167 351.5,852.5C 334.689,851.962 318.689,848.295 303.5,841.5C 313.098,844.205 322.764,846.371 332.5,848C 319.453,844.158 306.453,840.491 293.5,837C 296.069,837.898 298.402,839.065 300.5,840.5C 296.681,840.395 293.014,839.562 289.5,838C 257.88,824.691 227.547,809.024 198.5,791C 173.225,773.733 149.725,754.233 128,732.5C 127.487,731.473 126.987,730.473 126.5,729.5C 139.962,742.454 153.962,754.954 168.5,767C 169.167,767.667 169.833,767.667 170.5,767C 125.946,730.64 89.7797,687.474 62,637.5C 61.3457,636.304 60.8457,636.304 60.5,637.5C 72.7036,659.009 86.0369,679.675 100.5,699.5C 98.5372,698.04 96.7038,696.373 95,694.5C 83.0062,678.519 72.0062,661.852 62,644.5C 55.2279,632.176 49.2279,619.509 44,606.5C 43.1923,604.421 43.359,602.421 44.5,600.5C 50.0476,611.927 55.881,623.261 62,634.5C 68.1691,643.5 73.8357,652.834 79,662.5C 87,673.833 95,685.167 103,696.5C 111.378,704.942 119.045,713.942 126,723.5C 139.167,736 152.333,748.5 165.5,761C 179.219,771.719 193.219,782.052 207.5,792C 226.02,803.096 245.02,813.429 264.5,823C 279.822,828.665 295.155,834.332 310.5,840C 324.02,843.67 337.686,846.504 351.5,848.5 Z"/></g>
<g><path style="opacity:0.133" fill="#4ee3e8" d="M 657.5,799.5 C 655.454,802.366 652.787,804.533 649.5,806C 647.35,807.411 645.016,808.245 642.5,808.5C 646.995,804.749 651.995,801.749 657.5,799.5 Z"/></g>
<g><path style="opacity:0.218" fill="#5ee5eb" d="M 564.5,798.5 C 566.5,798.5 568.5,798.5 570.5,798.5C 570.67,799.822 570.337,800.989 569.5,802C 557.14,806.669 544.474,810.169 531.5,812.5C 531.5,811.5 531.5,810.5 531.5,809.5C 543.051,807.205 554.051,803.539 564.5,798.5 Z"/></g>
<g><path style="opacity:0.349" fill="#5bdce2" d="M 169.5,747.5 C 170.922,747.709 172.255,748.209 173.5,749C 234.811,800.301 305.478,830.968 385.5,841C 387.044,841.29 388.377,841.956 389.5,843C 386.217,844.097 382.883,844.597 379.5,844.5C 351.723,841.244 324.723,834.744 298.5,825C 293.833,824.667 289.167,824.333 284.5,824C 281.567,822.729 278.901,821.062 276.5,819C 264.021,815.092 252.021,810.092 240.5,804C 236.5,801.333 233.167,798 230.5,794C 212.794,784.151 196.127,772.817 180.5,760C 176.23,756.239 172.563,752.072 169.5,747.5 Z"/></g>
<g><path style="opacity:0.749" fill="#b1e7e9" d="M 236.5,796.5 C 246.78,801.64 257.114,806.807 267.5,812C 266.09,813.267 264.424,813.267 262.5,812C 254.009,807.922 245.676,803.588 237.5,799C 236.748,798.329 236.414,797.496 236.5,796.5 Z"/></g>
<g><path style="opacity:0.149" fill="#53e6ec" d="M 637.5,811.5 C 630.186,817.658 621.852,821.992 612.5,824.5C 620.668,819.915 629.002,815.582 637.5,811.5 Z"/></g>
<g><path style="opacity:0.559" fill="#66e5eb" d="M 422.5,823.5 C 428.81,823.293 435.143,823.793 441.5,825C 437.682,826.761 433.849,827.594 430,827.5C 427.26,826.718 424.426,826.218 421.5,826C 421.167,825.667 420.833,825.333 420.5,825C 421.416,824.722 422.082,824.222 422.5,823.5 Z"/></g>
<g><path style="opacity:0.522" fill="#59dbe1" d="M 540.5,840.5 C 538.769,839.793 537.103,838.793 535.5,837.5C 516.003,842.533 496.337,846.533 476.5,849.5C 454.534,851.118 432.534,851.785 410.5,851.5C 432.037,850.859 453.704,849.692 475.5,848C 472.635,847.817 469.969,847.317 467.5,846.5C 490.909,844.404 514.075,840.738 537,835.5C 539.501,835.584 541.834,836.25 544,837.5C 589.526,823.653 631.359,802.82 669.5,775C 699.558,751.944 726.725,725.777 751,696.5C 753.324,693.52 754.824,690.187 755.5,686.5C 756.338,686.158 756.672,685.492 756.5,684.5C 757.167,684.5 757.5,684.167 757.5,683.5C 759.727,682.599 760.727,680.933 760.5,678.5C 760.833,678.5 761.167,678.5 761.5,678.5C 761.56,679.043 761.893,679.376 762.5,679.5C 766.469,675.572 769.969,671.239 773,666.5C 770.918,671.31 768.252,675.977 765,680.5C 708.144,758.827 633.31,812.16 540.5,840.5 Z"/></g>
<g><path style="opacity:0.222" fill="#56e6ed" d="M 608.5,826.5 C 598.381,833.054 587.381,837.721 575.5,840.5C 586.316,835.597 597.316,830.93 608.5,826.5 Z"/></g>
<g><path style="opacity:0.923" fill="#dbf0f1" d="M 540.5,840.5 C 519.435,845.913 498.101,849.913 476.5,852.5C 476.5,851.5 476.5,850.5 476.5,849.5C 496.337,846.533 516.003,842.533 535.5,837.5C 537.103,838.793 538.769,839.793 540.5,840.5 Z"/></g>
<g><path style="opacity:0.89" fill="#25bac1" d="M 303.5,841.5 C 302.209,841.737 301.209,841.404 300.5,840.5C 298.402,839.065 296.069,837.898 293.5,837C 306.453,840.491 319.453,844.158 332.5,848C 322.764,846.371 313.098,844.205 303.5,841.5 Z"/></g>
<g><path style="opacity:1" fill="#abdcde" d="M 553.5,839.5 C 556.598,839.413 556.932,839.913 554.5,841C 547.239,843.317 539.905,844.984 532.5,846C 539.654,843.968 546.654,841.801 553.5,839.5 Z"/></g>
<g><path style="opacity:0.2" fill="#7bf0f4" d="M 575.5,840.5 C 561.644,846.411 547.311,851.245 532.5,855C 512.662,859.529 492.662,863.195 472.5,866C 459.495,866.667 446.495,867 433.5,867C 431.423,866.808 429.423,866.308 427.5,865.5C 427.054,863.632 426.721,861.799 426.5,860C 401.315,859.15 376.315,856.65 351.5,852.5C 351.5,851.167 351.5,849.833 351.5,848.5C 361.952,850.119 372.452,851.452 383,852.5C 387.505,852.154 391.672,850.987 395.5,849C 407.179,848.305 418.845,848.472 430.5,849.5C 442.926,848.953 455.26,847.953 467.5,846.5C 469.969,847.317 472.635,847.817 475.5,848C 453.704,849.692 432.037,850.859 410.5,851.5C 422.787,852.351 436.453,852.851 451.5,853C 447.469,853.481 443.469,854.147 439.5,855C 441.81,855.497 444.143,855.663 446.5,855.5C 430.672,856.331 414.672,856.831 398.5,857C 409.818,857.907 421.151,858.407 432.5,858.5C 432.792,859.874 433.125,861.207 433.5,862.5C 432.048,863.302 430.382,863.802 428.5,864C 448.567,866.141 468.567,865.474 488.5,862C 518.104,857.182 547.104,850.016 575.5,840.5 Z"/></g>
<g><path style="opacity:0.623" fill="#b2fafc" d="M 476.5,849.5 C 476.5,850.5 476.5,851.5 476.5,852.5C 466.62,854.21 456.62,855.21 446.5,855.5C 444.143,855.663 441.81,855.497 439.5,855C 443.469,854.147 447.469,853.481 451.5,853C 436.453,852.851 422.787,852.351 410.5,851.5C 432.534,851.785 454.534,851.118 476.5,849.5 Z"/></g>
<g><path style="opacity:1" fill="#e1ecec" d="M 485.5,856.5 C 484.494,856.062 484.494,855.396 485.5,854.5C 500.979,852.531 516.312,850.031 531.5,847C 516.378,851.258 501.045,854.424 485.5,856.5 Z"/></g>
<g><path style="opacity:0.408" fill="#a8f6f9" d="M 485.5,854.5 C 484.494,855.396 484.494,856.062 485.5,856.5C 478.366,858.246 471.033,859.58 463.5,860.5C 461.396,859.088 459.063,858.088 456.5,857.5C 466.029,856.548 475.696,855.548 485.5,854.5 Z"/></g>
<g><path style="opacity:0.85" fill="#d2f8f9" d="M 456.5,857.5 C 459.063,858.088 461.396,859.088 463.5,860.5C 453.487,860.986 443.487,861.653 433.5,862.5C 433.125,861.207 432.792,859.874 432.5,858.5C 440.5,858.167 448.5,857.833 456.5,857.5 Z"/></g>
</svg>
